<?xml version="1.0" encoding="UTF-8" standalone="no"?>
<!--
   ElfHunter logo
   Author: Walter Tiberti
   email: wtuniv AT gmail DOT com
   Project site: wtprojects.site88.net

   ** Created with Inkscape (http://www.inkscape.org/) **
-->

<svg
   xmlns:dc="http://purl.org/dc/elements/1.1/"
   xmlns:cc="http://creativecommons.org/ns#"
   xmlns:rdf="http://www.w3.org/1999/02/22-rdf-syntax-ns#"
   xmlns:svg="http://www.w3.org/2000/svg"
   xmlns="http://www.w3.org/2000/svg"
   xmlns:sodipodi="http://sodipodi.sourceforge.net/DTD/sodipodi-0.dtd"
   xmlns:inkscape="http://www.inkscape.org/namespaces/inkscape"
   width="290.07352"
   height="357.61465"
   id="svg2"
   version="1.1"
   inkscape:version="0.48.4 r9939"
   sodipodi:docname="elf.png">
  <defs
     id="defs4">
    <inkscape:path-effect
       effect="skeletal"
       id="path-effect3147"
       is_visible="true"
       pattern="M 0,5 C 0,2.24 2.24,0 5,0 7.76,0 10,2.24 10,5 10,7.76 7.76,10 5,10 2.24,10 0,7.76 0,5 z"
       copytype="single_stretched"
       prop_scale="1"
       scale_y_rel="false"
       spacing="0"
       normal_offset="0"
       tang_offset="0"
       prop_units="false"
       vertical_pattern="false"
       fuse_tolerance="0" />
    <inkscape:path-effect
       effect="spiro"
       id="path-effect3145"
       is_visible="true" />
    <inkscape:path-effect
       effect="skeletal"
       id="path-effect3141"
       is_visible="true"
       pattern="M 0,5 C 0,2.24 2.24,0 5,0 7.76,0 10,2.24 10,5 10,7.76 7.76,10 5,10 2.24,10 0,7.76 0,5 z"
       copytype="single_stretched"
       prop_scale="1"
       scale_y_rel="false"
       spacing="0"
       normal_offset="0"
       tang_offset="0"
       prop_units="false"
       vertical_pattern="false"
       fuse_tolerance="0" />
    <inkscape:path-effect
       effect="spiro"
       id="path-effect3139"
       is_visible="true" />
  </defs>
  <sodipodi:namedview
     id="base"
     pagecolor="#ffffff"
     bordercolor="#666666"
     borderopacity="1.0"
     inkscape:pageopacity="0.0"
     inkscape:pageshadow="2"
     inkscape:zoom="0.98994949"
     inkscape:cx="2.4742377"
     inkscape:cy="154.62613"
     inkscape:document-units="px"
     inkscape:current-layer="layer1"
     showgrid="false"
     inkscape:window-width="1280"
     inkscape:window-height="751"
     inkscape:window-x="-8"
     inkscape:window-y="-8"
     inkscape:window-maximized="1"
     fit-margin-top="0"
     fit-margin-left="0"
     fit-margin-right="0"
     fit-margin-bottom="0" />
  <metadata
     id="metadata7">
    <rdf:RDF>
      <cc:Work
         rdf:about="">
        <dc:format>image/svg+xml</dc:format>
        <dc:type
           rdf:resource="http://purl.org/dc/dcmitype/StillImage" />
        <dc:title></dc:title>
      </cc:Work>
    </rdf:RDF>
  </metadata>
  <g
     inkscape:label="Livello 1"
     inkscape:groupmode="layer"
     id="layer1"
     transform="translate(-33.068891,-29.549618)">
    <path
       d="m 218.59375,29.5625 c -37.50859,8.448558 -70.65434,29.392794 -102.9717,49.223264 -14.04888,11.9621 -25.262322,27.128076 -33.0283,43.839236 -7.163974,1.51681 -10.445395,22.74832 -13.90625,6.34375 -13.1029,-20.10188 -20.344583,-43.235842 -26.875,-66.125 -11.391687,27.278795 -9.491945,57.92979 -6.272275,86.65828 5.755494,37.15801 25.420807,69.98713 34.798302,106.1184 2.077644,10.50975 6.587624,20.84809 18.65696,18.40069 7.225716,16.13923 8.282594,35.74902 -0.662333,51.62243 -8.546287,18.27054 -29.863709,1.47647 -42.809293,9.75758 -15.809454,12.3123 14.669712,11.94959 22.182912,14.44654 10.252403,1.35362 11.654037,0.63477 1.067555,1.2554 -6.732452,7.3783 -17.473331,1.96401 -24.469117,7.82892 -5.433536,4.26726 -18.601422,10.88586 -2.769367,9.78035 12.981089,1.89002 39.582735,-5.1163 45.160895,-0.48973 -6.890756,3.41463 -12.467355,12.00674 0.244802,9.29551 20.104029,-1.84751 40.060379,-4.07116 60.154529,-2.38334 29.64677,2.44865 59.98509,-10.15017 80.10011,-31.79235 4.86249,-7.67403 8.98671,-10.60037 3.39757,-0.43618 -4.97515,12.64371 -13.90389,27.71931 -28.27301,30.18049 -11.20864,0.83857 -34.28958,-1.82307 -35.70901,11.04879 13.63431,8.17805 30.17225,-2.23608 43.29378,-7.37819 10.32453,-6.1422 19.18379,-16.99628 32.20789,-16.11161 24.35804,-2.35066 36.59424,-11.77239 60.95227,-14.12305 -7.9375,-40.66667 -3.75317,-74.26226 -11.69067,-114.92893 10.44947,-33.01036 28.38148,-64.0667 30.52147,-99.3172 2.25001,-24.33129 2.15899,-49.956973 -6.31511,-73.066765 -8.75818,10.567236 -8.74226,31.072574 -17.59053,43.862605 -5.26325,7.11506 -12.69374,30.33454 -16.17007,27.10648 -9.29063,-36.944667 -25.7089,-74.215033 -56.09205,-98.567797 -2.10002,-1.387405 -4.61796,-2.173125 -7.13496,-2.048573 z M 157.1875,97.78125 c 34.19865,1.509163 73.66904,9.68709 93.10904,40.93378 3.66756,11.78115 22.75828,12.40948 24.9357,16.50748 C 265.59603,188.62472 262.8639,223.75868 265,258.375 c 12.18713,19.1538 -20.303,21.93569 -26.5539,36.33876 -11.96942,16.4721 -16.46605,37.24263 -27.80546,53.8514 -3.59809,6.18587 -27.05048,17.3195 -24.5037,10.08118 8.67551,-4.28141 13.22245,-12.19297 0.41719,-6.67949 -25.26478,5.5042 -50.69155,12.01871 -76.74163,11.59565 11.13343,-1.22594 35.93185,-12.17338 35.81109,-16.07482 -8.39352,4.87276 -14.52778,3.82938 -3.36373,-1.67415 -3.69891,0.26371 -24.24808,8.13828 -34.91605,8.05882 -8.744977,0.88829 -28.451415,3.5517 -10.422911,-3.29532 6.483791,-2.83882 24.537181,-11.76562 22.328401,-11.89614 -2.6643,1.30343 11.84248,-8.01155 0.38407,-3.49643 -8.59629,1.72768 -31.12119,6.11514 -30.736232,1.95855 15.671132,-8.02187 24.958662,-24.67228 25.205972,-42.03046 1.78537,-17.29935 -2.44879,-36.73477 -16.44681,-48.20625 -12.995712,3.91149 -2.142673,-23.48363 -7.005263,-32.05025 -1.547291,-18.0384 -4.672662,-35.96667 -9.744787,-53.35605 16.600439,-2.57893 21.34365,-21.51519 31.17611,-32.62222 10.56037,-15.08079 25.25792,-30.924663 45.10514,-31.09653 z m 67.21875,25.40625 c -11.90937,12.56126 3.86635,29.79293 12.58227,39.73388 5.91645,8.7073 27.06863,25.76823 22.02129,3.61143 -4.95041,-17.84443 -22.80367,-27.29046 -32.08499,-42.30762 z m -81.4375,6.65625 c -14.78644,8.44861 -29.49249,23.94361 -44.767158,25.27416 -6.104636,21.53323 22.205358,26.61848 31.787518,9.81223 10.14772,-7.654 21.55762,-22.34363 12.97964,-35.08639 z m -2,35.875 c -23.4843,-0.63864 -36.589,35.01949 -16.29007,48.4194 17.99767,13.83772 50.76957,-2.69822 44.93475,-26.476 -2.55384,-13.06317 -15.92903,-21.58116 -28.64468,-21.9434 z m 80.71875,0 c -23.4843,-0.63864 -36.589,35.01949 -16.29007,48.4194 17.99767,13.83772 50.76957,-2.69822 44.93475,-26.476 -2.55384,-13.06317 -15.92903,-21.58116 -28.64468,-21.9434 z m -44.0625,74.5 c -18.4658,1.93705 8.42569,28.58856 4.96875,7 -0.55783,-2.75022 -1.42616,-6.7925 -4.96875,-7 z m 14.28125,0 c -18.46739,1.95541 8.46567,28.58547 5,7 -0.5504,-2.76137 -1.4479,-6.80646 -5,-7 z m -5.125,27.9375 c -26.24546,0.006 -48.40099,26.84301 -44.0625,52.59375 14.54439,14.04511 31.68695,-4.72439 47.77397,-3.71884 18.72589,10.68361 43.43521,-14.65953 29.3467,-32.25759 -9.03896,-8.52094 -19.97375,-16.81755 -33.05817,-16.61732 z"
       id="path2989"
       inkscape:connector-curvature="0"
       sodipodi:nodetypes="ccccccccccccccccccccccccccccccccccccccccccccccccccccccccccccccccccccccccccccccccc" />
    <path
       style="fill:#ffffff"
       d="m 184.43443,274.68656 c -8.2086,-0.42554 -15.78054,4.1491 -21.56272,9.59476 -5.48279,5.37378 -10.26564,12.39498 -10.44669,20.32063 -0.1105,4.55292 2.36142,8.94384 6.16415,11.40009 15.50547,-1.79383 30.49171,-8.03924 46.2981,-6.92608 2.82801,0.75273 4.90221,-1.96427 6.70048,-3.75818 3.75684,-4.28773 3.65584,-10.73265 1.14977,-15.60937 -3.84811,-7.71511 -11.58131,-13.71978 -20.25098,-14.6715 -2.68846,-0.0768 -5.35202,-0.56178 -8.05211,-0.35035 z"
       id="path3037-0"
       inkscape:connector-curvature="0" />
    <path
       style="fill:#ffffff"
       d="m 48.200102,105.34375 c 5.590722,24.58008 22.804133,45.05242 26.244073,70.28285 2.271869,15.04367 5.043569,30.58862 1.457287,45.6608 -3.190779,5.05394 -8.653175,1.40774 -9.203251,-3.37978 -2.454231,-7.04776 -2.885097,-14.89811 -7.023325,-21.26348 -9.099903,-21.33009 -17.512099,-43.96836 -16.316021,-67.54357 0.770101,-8.02464 0.719335,-16.55047 4.841237,-23.75682 z"
       id="path3044-4-9"
       inkscape:connector-curvature="0" />
    <path
       style="fill:#ffffff"
       d="m 310.44511,92.038662 c -4.92426,24.722218 -21.57799,45.652378 -24.33467,70.966558 -1.8644,15.09958 -4.21487,30.71377 -0.2225,45.6835 3.32622,4.96584 8.68806,1.17332 9.10853,-3.62731 2.26283,-7.11152 2.48134,-14.97064 6.44598,-21.44555 8.52,-21.56827 16.3172,-44.42565 14.48431,-67.95992 -0.98674,-8.00088 -1.16647,-16.524978 -5.48165,-23.617278 z"
       id="path3044-4-9-4"
       inkscape:connector-curvature="0" />
    <path
       style="fill:#ffffff"
       d="m 126.15381,359.33357 c 9.84317,-3.993 18.92896,-9.02793 19.52656,-10.82072 0.30036,-0.9011 -0.16761,-1.13602 -1.46111,-0.73348 -1.04665,0.32572 -3.03943,0.87534 -4.42839,1.2214 -2.38717,0.59475 -2.36846,0.53875 0.34185,-1.02316 1.57697,-0.9088 2.66196,-1.85761 2.4111,-2.10848 -0.25087,-0.25087 -7.45052,1.32809 -15.99921,3.50881 -9.75969,2.48964 -19.30174,4.23074 -25.64461,4.67929 -5.55584,0.39289 -9.853934,0.45806 -9.551321,0.14482 0.302613,-0.31324 6.439289,-3.4779 13.637061,-7.03256 12.18739,-6.01885 19.65284,-11.01436 19.65284,-13.15073 0,-0.49666 -1.02278,-0.60604 -2.27284,-0.24307 -1.25006,0.36298 -7.2731,1.5494 -13.38452,2.6365 -11.566581,2.05747 -18.715135,2.52984 -18.649495,1.23234 0.02108,-0.41669 2.47427,-2.44828 5.451534,-4.51466 6.099471,-4.23334 12.354371,-12.8401 15.816761,-21.76392 1.78408,-4.59823 2.33874,-8.50353 2.68799,-18.92575 0.49404,-14.74321 -0.91872,-23.16035 -5.35754,-31.91996 -3.56015,-7.0256 -10.173239,-14.04198 -13.234889,-14.04198 -3.620184,0 -4.605636,-3.80142 -3.806753,-14.6847 0.414445,-5.64605 0.199279,-12.76088 -0.551791,-18.2458 -2.524041,-18.43258 -5.344792,-34.50359 -7.542474,-42.97267 l -2.264877,-8.72803 3.624241,-1.0924 c 5.753406,-1.73418 10.64074,-6.54379 17.899233,-17.61461 14.84215,-22.63758 25.88552,-34.58766 37.03634,-40.07719 8.32247,-4.09714 15.1056,-5.071187 27.48057,-3.946171 39.46833,3.588091 66.63376,16.444121 80.85604,38.265091 5.64921,8.66748 6.97173,9.74186 16.83025,13.67247 9.91855,3.95453 9.54338,2.21548 5.03819,23.35391 -4.50551,21.13989 -5.37935,29.55141 -5.97144,57.48085 -0.46827,22.08895 -0.32755,25.71602 1.10519,28.48664 3.65149,7.0612 0.98603,12.12282 -10.038,19.06182 -15.42144,9.70693 -19.82835,15.62437 -32.25241,43.30731 -11.46653,25.54941 -13.95983,28.76362 -27.07198,34.89953 -8.45236,3.95535 -12.02065,3.35428 -5.99595,-1.01 4.90348,-3.55207 5.85672,-4.92683 4.41548,-6.36807 -0.78237,-0.78237 -2.74739,-0.60555 -6.93255,0.62385 -14.67728,4.31146 -55.81053,11.74065 -64.93461,11.72802 l -4.54569,-0.006 8.08122,-3.27825 0,-2.3e-4 z m 42.93149,-36.22756 c 13.83776,-5.05151 19.30597,-5.99187 24.45421,-4.20531 11.10581,3.85395 25.47192,-3.72464 29.50657,-15.56569 3.87846,-11.38264 0.28104,-18.23856 -15.01871,-28.62251 -18.79866,-12.75867 -42.28967,-7.55407 -57.06231,12.64259 -6.0815,8.31443 -8.59683,15.82367 -8.62476,25.74834 l -0.024,8.54141 4.04061,2.30112 c 5.71507,3.25472 12.16467,3.01636 22.72843,-0.83995 l 0,0 z m 13.60627,-73.96402 c -0.0259,-4.9832 -0.40873,-6.22859 -2.41364,-7.85207 -4.03828,-3.27 -9.17233,-0.63919 -9.17233,4.70012 0,4.59921 4.91424,9.84422 8.80479,9.39743 2.72351,-0.31275 2.811,-0.50922 2.78118,-6.24548 z m 14.50897,2.38703 c 0.50205,-5.28214 -1.45226,-10.7717 -4.07935,-11.45869 -3.90942,-1.02235 -7.33075,1.42838 -7.67225,5.49571 -0.4081,4.86048 4.36418,10.30828 8.60359,9.82143 2.39999,-0.27561 2.8612,-0.84089 3.14801,-3.85845 l 0,0 z m -42.6448,-35.12611 c 14.80623,-7.666 19.87063,-21.15614 13.12127,-34.95135 -5.11956,-10.464 -16.10052,-16.40579 -28.72817,-15.54479 -3.70376,0.25253 -7.64325,0.8297 -8.75442,1.2826 -1.11117,0.4529 0.80809,-1.96754 4.26501,-5.37875 7.57434,-7.47418 11.46783,-14.63303 11.62123,-21.36767 0.099,-4.34427 -1.7186,-11.14239 -2.97904,-11.14239 -0.26661,0 -6.68907,4.25343 -14.27212,9.45206 -15.55232,10.66204 -20.08088,13.17503 -26.78359,14.8628 l -4.681445,1.1788 0,5.95583 c 0,5.32203 0.349365,6.33139 3.282995,9.48499 2.45321,2.63716 4.53949,3.75755 8.25423,4.43276 2.73418,0.49697 5.46159,0.75842 6.06092,0.58098 0.59932,-0.17744 2.34996,-0.59909 3.89031,-0.937 l 2.80064,-0.6144 -3.2283,5.72023 c -2.65715,4.70821 -3.30888,7.11233 -3.6838,13.5888 -0.38455,6.64293 -0.109,8.58435 1.76905,12.46389 2.49578,5.15559 6.67747,9.08471 12.67376,11.90827 5.61725,2.64508 19.40215,2.11497 25.37147,-0.97566 l 0,0 z m 78.46396,0.77284 c 28.74072,-10.75327 21.52864,-49.5373 -9.54647,-51.33758 -8.26006,-0.47853 -12.40915,0.8133 -18.01009,5.6075 -12.23682,10.47427 -13.77141,31.99068 -2.93402,41.13792 8.14464,6.87444 19.72793,8.61898 30.49058,4.59216 l 0,0 z m 25.97351,-40.90831 c 1.95295,-2.35318 0.68779,-10.71966 -2.60524,-17.2282 -1.74525,-3.44944 -7.23952,-10.38787 -13.72318,-17.33032 -5.94696,-6.36778 -11.86636,-13.12526 -13.15419,-15.01662 -2.94155,-4.32005 -5.34644,-4.37164 -7.90844,-0.16966 -5.12321,8.40268 -0.34108,19.50164 16.72717,38.82255 9.18198,10.39381 17.46771,14.77338 20.66388,10.92225 l 0,0 z"
       id="path3394"
       inkscape:connector-curvature="0" />
  </g>
</svg>
